<?xml version="1.0" standalone="no"?>
<!DOCTYPE svg PUBLIC "-//W3C//DTD SVG 20010904//EN"
 "http://www.w3.org/TR/2001/REC-SVG-20010904/DTD/svg10.dtd">
<svg version="1.0" xmlns="http://www.w3.org/2000/svg"
 width="600.000000pt" height="720.000000pt" viewBox="0 0 600.000000 720.000000"
 preserveAspectRatio="xMidYMid meet">
<metadata>
Created by potrace 1.16, written by Peter Selinger 2001-2019
</metadata>
<g transform="translate(0.000000,720.000000) scale(0.100000,-0.100000)"
fill="#000000" stroke="none">
<path d="M561 6930 c-73 -17 -71 -3 -71 -501 l0 -446 -30 -38 c-36 -45 -40
-100 -12 -167 36 -84 41 -165 41 -747 l1 -284 -35 -38 c-19 -21 -37 -50 -41
-65 -4 -15 1 -71 11 -125 22 -119 26 -111 -121 -252 -178 -169 -243 -295 -244
-464 0 -125 16 -163 88 -211 48 -32 62 -49 101 -125 54 -102 107 -161 175
-193 27 -12 53 -29 57 -36 5 -7 9 -373 9 -813 0 -741 1 -803 18 -835 11 -24
28 -39 52 -47 27 -9 649 -12 2638 -12 2815 -1 2653 -4 2683 51 18 32 25 2254
7 2308 -6 19 -21 48 -34 63 -13 16 -27 39 -30 51 -3 12 -8 664 -12 1449 l-7
1427 -28 27 -27 28 -2578 2 c-1417 0 -2592 -3 -2611 -7z m4811 -63 c4 -7 8
-559 8 -1228 0 -1070 -2 -1218 -15 -1229 -20 -16 -444 -32 -775 -28 l-245 3 1
50 c0 28 4 92 9 143 5 65 4 119 -5 175 -9 63 -10 92 -1 124 10 38 15 43 49 48
82 13 86 16 95 75 14 91 16 97 44 130 34 41 44 140 32 345 -19 322 -47 460
-133 641 -72 150 -114 212 -216 312 -112 110 -184 164 -300 222 -255 128 -476
180 -766 180 -284 1 -454 -49 -651 -191 -45 -33 -103 -68 -129 -79 -90 -39
-206 -142 -299 -265 -57 -75 -142 -240 -188 -365 -86 -231 -167 -665 -167
-894 0 -115 6 -130 60 -143 29 -8 35 -14 38 -39 5 -61 13 -74 51 -93 33 -17
41 -28 59 -86 16 -48 22 -90 22 -160 0 -51 -4 -96 -8 -99 -5 -3 -76 -6 -158
-7 -163 -2 -152 -4 -261 65 -38 23 -60 47 -79 82 -49 94 -77 110 -248 148 -60
14 -113 29 -118 34 -7 7 -5 49 6 122 16 106 16 114 -1 148 -28 55 -60 73 -154
84 -107 14 -113 18 -90 72 44 102 43 151 -6 230 -19 32 -35 68 -35 80 0 13 16
66 36 120 20 53 36 112 36 131 0 42 -20 54 -137 86 -108 29 -168 56 -182 82
-8 16 -11 154 -9 502 l3 480 930 6 c1436 9 3888 0 3897 -14z m122 -84 c9 -156
10 -319 8 -1375 l-2 -998 -35 0 -35 0 0 1235 0 1235 29 0 29 0 6 -97z m259 84
c8 -22 12 -2441 4 -2454 -6 -9 -38 -13 -101 -13 l-93 0 -7 46 c-3 26 -6 584
-6 1240 l0 1194 99 0 c73 0 100 -3 104 -13z m-5238 -993 c31 -59 72 -82 181
-105 108 -23 134 -33 134 -52 0 -7 -18 -67 -40 -132 -26 -77 -38 -129 -35
-145 4 -13 22 -49 41 -80 41 -66 42 -84 8 -168 -42 -105 -23 -129 119 -152
134 -21 143 -34 123 -170 -15 -99 -12 -158 8 -178 7 -7 64 -24 127 -37 63 -12
126 -26 140 -30 38 -10 79 -56 85 -97 l6 -35 -71 -22 c-65 -20 -94 -41 -77
-58 3 -4 30 1 60 10 29 9 79 17 112 17 51 0 66 -5 111 -35 31 -21 55 -45 59
-60 3 -13 2 -61 -3 -105 -7 -60 -6 -90 4 -118 20 -59 16 -91 -16 -121 -16 -15
-47 -33 -69 -39 -52 -16 -66 -34 -58 -75 5 -28 14 -37 44 -49 34 -13 39 -21
60 -84 12 -39 22 -86 22 -105 0 -56 -84 -237 -134 -289 -24 -25 -62 -82 -86
-127 -48 -95 -46 -94 -209 -114 -132 -16 -211 -4 -285 42 -105 67 -154 88
-276 117 -204 50 -228 66 -295 199 -56 112 -71 131 -125 158 -37 19 -51 32
-58 57 -30 98 -22 190 28 296 42 89 74 130 216 267 123 119 124 121 124 165 0
25 -7 72 -15 105 -25 105 -23 113 50 178 46 41 73 75 95 121 28 59 30 72 30
173 0 101 -2 113 -25 144 -71 99 -80 121 -83 206 -4 75 -2 86 26 140 43 82 50
140 23 197 -12 24 -33 52 -47 61 -38 25 -64 75 -64 123 0 23 3 42 8 42 4 0 16
-16 27 -36z m67 -740 c11 -26 23 -73 25 -105 9 -91 -27 -239 -57 -239 -6 0
-10 75 -10 195 0 130 4 195 11 195 5 0 19 -21 31 -46z m2712 -79 c22 -70 42
-83 133 -87 40 -2 73 -4 73 -6 0 -2 -10 -16 -21 -32 -40 -53 -10 -168 63 -237
60 -58 120 -77 234 -78 96 0 104 2 170 35 61 31 71 41 97 91 21 42 29 71 30
120 l2 64 -45 23 c-24 12 -61 22 -82 22 -44 0 -52 9 -32 38 19 27 29 27 54 2
14 -14 28 -18 48 -14 24 5 30 1 42 -27 14 -30 21 -34 75 -44 75 -13 85 -20 85
-53 0 -46 -49 -359 -81 -522 -29 -143 -101 -385 -137 -455 -29 -59 -137 -211
-179 -253 -48 -48 -168 -129 -246 -166 -96 -45 -293 -101 -302 -86 -7 12 -25
478 -19 494 3 7 17 19 31 25 47 21 11 32 -98 29 -85 -2 -104 -6 -107 -19 -2
-9 8 -21 24 -28 26 -12 27 -13 19 -79 -4 -37 -6 -74 -6 -82 1 -8 4 -86 7 -172
l6 -158 -25 0 c-32 0 -252 64 -331 96 -86 35 -212 109 -275 163 -74 63 -183
200 -226 285 -68 135 -124 445 -132 727 l-6 195 54 15 c47 12 56 19 72 52 20
43 25 44 61 16 26 -20 26 -22 10 -40 -13 -15 -16 -30 -11 -73 15 -146 116
-225 297 -234 122 -6 179 16 245 91 51 59 75 119 75 192 0 54 -11 74 -45 77
-40 3 132 15 232 17 113 1 123 7 123 70 0 33 9 61 19 61 4 0 15 -25 25 -55z
m701 -137 c39 -13 40 -14 38 -60 -2 -69 -34 -132 -82 -162 -109 -69 -288 -56
-380 27 -52 47 -79 159 -46 187 8 7 41 16 73 21 85 12 350 3 397 -13z m-1107
6 c67 -18 -24 -211 -122 -258 -40 -19 -198 -22 -261 -5 -85 23 -135 94 -135
190 0 48 15 59 97 68 82 10 389 13 421 5z m-824 -248 c9 -45 8 -48 -19 -70
l-28 -23 6 -94 c4 -52 11 -110 16 -129 5 -19 12 -47 15 -62 6 -25 11 -28 44
-28 37 0 39 -1 50 -47 21 -92 23 -111 12 -118 -29 -18 -90 81 -145 235 -43
121 -43 301 1 368 22 33 38 23 48 -32z m2231 -298 c-17 -111 -105 -284 -152
-302 -14 -6 -15 1 -10 48 3 29 13 81 22 115 17 58 20 61 57 72 35 9 43 17 61
60 12 27 23 49 25 49 2 0 1 -19 -3 -42z m-2314 -93 c44 -135 86 -204 139 -229
20 -9 -24 -12 -209 -14 -129 -1 -236 0 -238 2 -15 15 -35 189 -29 248 l8 67
96 4 c53 2 122 3 152 3 l55 -1 26 -80z m3376 26 c216 -3 396 -10 400 -15 4 -4
8 -57 8 -117 0 -81 -4 -112 -13 -118 -8 -4 -170 -11 -360 -15 -292 -6 -566
-12 -1181 -28 -92 -2 -114 10 -56 31 48 17 96 83 130 178 15 43 31 83 36 89 9
11 266 10 1036 -5z m-2147 -602 c10 -183 2 -729 -10 -729 -13 0 -20 169 -22
515 -2 292 4 407 19 392 2 -3 8 -83 13 -178z m-958 147 c27 -12 160 -184 156
-203 -2 -9 -16 -25 -31 -37 -27 -20 -41 -21 -355 -24 -180 -2 -342 0 -359 3
-31 6 -33 8 -33 50 0 24 -9 72 -20 107 -11 34 -20 76 -20 91 l0 29 323 -4
c177 -2 330 -8 339 -12z m3581 -9 c4 -7 6 -65 5 -129 l-3 -118 -902 -4 c-857
-4 -1023 -10 -887 -31 27 -4 434 -7 905 -6 471 1 863 -1 872 -5 16 -6 17 -80
17 -984 l0 -977 -61 -7 c-34 -3 -133 -6 -219 -6 -132 0 -159 2 -164 15 -6 17
-36 256 -61 490 -32 301 -58 433 -98 512 -56 107 -292 289 -572 440 -505 273
-634 343 -668 358 -52 24 -60 45 -55 131 4 63 2 76 -14 90 -27 25 -23 43 29
125 25 41 52 84 60 96 12 21 20 23 161 25 81 2 484 1 897 0 553 -3 752 -7 758
-15z m-3471 -300 c8 -11 3 -99 -8 -159 -6 -29 8 -21 -484 -278 -455 -238 -662
-386 -738 -528 -35 -66 -73 -189 -101 -330 -22 -111 -77 -473 -87 -577 -3 -38
-11 -76 -16 -82 -8 -10 -58 -13 -189 -13 l-179 0 -10 26 c-6 16 -10 331 -10
830 l0 804 23 0 c65 0 193 -51 262 -104 87 -66 115 -71 299 -57 208 16 233 26
276 117 17 35 58 100 90 143 32 43 75 113 95 156 l35 78 367 -7 c271 -5 369
-10 375 -19z m1243 -642 c146 -26 195 -42 195 -65 0 -24 0 -24 -70 -5 -77 21
-330 45 -470 45 -226 0 -509 -41 -587 -86 -49 -28 -59 -29 -67 -8 -23 60 121
110 389 134 150 13 503 5 610 -15z m-76 -86 c96 -11 186 -33 209 -51 7 -6 12
-35 12 -74 0 -76 6 -75 -134 -35 -137 40 -182 45 -268 31 -82 -13 -136 -41
-190 -97 -51 -52 -77 -116 -89 -220 -10 -75 -18 -99 -55 -164 -24 -42 -44 -83
-44 -92 0 -9 16 -35 35 -56 l36 -39 -27 -21 c-34 -27 -46 -23 -58 17 -10 37
-36 43 -37 10 -2 -40 1 -101 7 -161 6 -57 7 -58 53 -80 25 -12 47 -30 49 -40
2 -10 -2 -49 -8 -87 -13 -75 -33 -93 -45 -40 -9 40 -21 38 -39 -5 -13 -30 -20
-35 -48 -35 -59 0 -53 -15 -103 288 -14 83 -39 277 -55 430 -17 152 -35 315
-40 361 -5 46 -7 87 -4 92 7 11 130 49 159 49 28 0 31 -18 41 -275 7 -193 15
-261 29 -258 6 2 11 103 13 272 2 269 2 270 25 277 62 20 407 22 576 3z m121
-213 c125 -49 176 -80 196 -118 24 -47 93 -257 85 -262 -3 -2 -44 11 -91 30
-83 33 -98 45 -159 125 -31 40 -65 54 -182 74 -127 22 -123 20 -89 54 24 23
30 38 30 70 0 47 -15 55 -25 12 -9 -41 -38 -65 -69 -57 -32 8 -72 79 -53 94
24 19 44 22 152 18 99 -3 120 -7 205 -40z m-426 -120 c26 -35 57 -131 49 -152
-5 -14 -84 -37 -109 -32 -17 3 -19 13 -18 73 2 68 24 145 42 145 5 0 21 -15
36 -34z m416 -204 c41 -13 111 -40 156 -58 45 -18 103 -38 130 -44 57 -13 77
-29 112 -89 24 -41 26 -57 38 -263 7 -122 10 -227 7 -234 -4 -12 -84 -14 -454
-14 l-449 0 0 34 c0 19 5 38 10 41 6 3 96 -3 201 -15 262 -30 358 -24 359 23
0 25 -320 107 -495 127 -60 7 -111 14 -113 16 -2 1 4 17 13 34 16 32 16 65 0
104 -8 18 -4 19 76 13 46 -4 177 -16 291 -27 215 -21 331 -17 349 11 12 20 1
29 -35 29 -22 0 -55 14 -97 42 -35 23 -98 56 -141 75 -89 39 -123 40 -307 14
l-123 -17 5 41 c4 43 -6 75 -23 75 -6 0 -10 -15 -10 -32 -1 -50 -22 -71 -72
-72 -33 -1 -43 3 -46 17 -16 80 110 147 353 187 123 21 157 18 265 -18z m-525
-318 c19 -5 20 -11 15 -59 -3 -30 -9 -57 -12 -60 -3 -4 -35 -7 -70 -8 l-63 -2
-3 43 c-4 50 8 68 52 81 38 11 55 12 81 5z"/>
<path d="M4873 6763 c-18 -7 -16 -40 3 -47 9 -3 31 -6 50 -6 34 0 34 -1 34
-44 0 -51 -8 -56 -80 -56 -51 0 -64 -7 -51 -29 8 -12 29 -16 109 -20 19 -1 22
-6 22 -43 0 -71 18 -118 48 -129 26 -11 178 -7 189 5 3 3 3 12 0 21 -5 12 -24
15 -91 15 -97 0 -100 3 -94 91 l3 44 103 3 c94 2 102 4 102 22 0 19 -7 20
-105 20 l-105 0 0 49 c0 57 7 61 108 61 55 0 63 2 60 17 -2 10 -16 21 -33 24
-36 8 -255 10 -272 2z"/>
<path d="M5198 6319 c-10 -5 -26 -9 -35 -7 -13 2 -18 -4 -18 -22 l0 -25 -150
-5 c-142 -5 -150 -6 -150 -25 0 -19 6 -20 148 -18 169 3 168 4 122 -88 -35
-68 -86 -122 -156 -166 -38 -23 -59 -43 -59 -54 0 -69 189 70 244 178 29 59
60 169 52 190 -5 12 0 13 25 8 28 -6 30 -5 27 16 -3 27 -24 34 -50 18z"/>
<path d="M5100 5813 c0 -61 -12 -73 -69 -73 -63 0 -75 10 -75 62 -1 36 -4 43
-21 43 -17 0 -20 -8 -23 -47 -3 -50 -6 -53 -72 -60 -38 -5 -31 -32 10 -38 54
-9 60 -17 60 -71 0 -41 3 -49 19 -49 14 0 19 10 24 50 3 28 9 55 12 60 7 11
77 13 114 3 21 -5 23 -10 17 -51 -8 -61 -46 -123 -95 -155 -64 -42 -49 -77 18
-43 66 34 121 136 121 222 0 32 1 33 48 36 34 2 47 7 47 18 0 11 -13 16 -47
18 l-47 3 -3 57 c-2 45 -7 58 -20 60 -15 3 -18 -4 -18 -45z"/>
<path d="M5084 5310 c-49 -39 -124 -91 -166 -116 -85 -50 -96 -60 -80 -76 7
-7 34 2 86 31 41 22 80 41 86 41 6 0 10 -38 10 -102 0 -108 8 -135 34 -125 14
5 16 27 16 138 l0 132 65 60 c63 58 80 87 51 87 -8 0 -54 -32 -102 -70z"/>
<path d="M4857 4863 c-4 -3 -7 -12 -7 -20 0 -10 28 -13 128 -13 181 0 172 4
172 -94 0 -135 10 -126 -149 -126 -140 0 -177 -8 -153 -32 9 -9 63 -15 175
-19 89 -4 164 -5 166 -2 8 6 6 273 -1 294 -7 18 -18 19 -166 19 -87 0 -162 -3
-165 -7z"/>
<path d="M554 5334 c7 -58 33 -121 61 -144 9 -8 26 -32 38 -54 19 -35 22 -56
21 -143 -1 -101 8 -131 23 -75 5 15 8 63 7 107 0 84 -16 127 -79 214 -13 18
-30 60 -36 92 -8 41 -16 59 -27 59 -12 0 -14 -10 -8 -56z"/>
<path d="M741 4509 c-77 -9 -98 -19 -86 -39 5 -8 40 -9 123 -4 131 7 170 -2
266 -64 28 -18 54 -32 58 -32 21 0 3 32 -38 69 -74 65 -179 88 -323 70z"/>
<path d="M1376 4360 c-71 -28 -89 -47 -83 -91 11 -81 66 -114 149 -89 114 33
162 117 103 175 -30 31 -97 33 -169 5z m142 -43 c25 -30 -52 -107 -108 -107
-31 0 -85 51 -77 73 13 34 162 62 185 34z"/>
<path d="M1210 4334 c-15 -39 -11 -105 9 -149 10 -22 41 -62 70 -88 l51 -48
-16 -32 c-21 -41 -54 -77 -71 -77 -34 0 -163 45 -163 57 0 7 18 33 40 57 22
24 40 46 40 50 0 3 -11 6 -25 6 -52 0 -121 -104 -102 -154 6 -16 117 -52 188
-62 36 -5 49 -2 71 15 27 21 68 113 68 152 0 11 -22 41 -50 68 -59 58 -70 83
-70 167 0 51 -3 64 -15 64 -9 0 -20 -12 -25 -26z"/>
<path d="M480 4325 c-7 -14 -60 -68 -116 -120 -84 -78 -110 -109 -138 -167
-46 -90 -46 -123 0 -257 93 -273 221 -413 454 -497 41 -15 110 -49 153 -77 43
-27 95 -56 115 -63 41 -15 238 -19 246 -5 3 4 -3 16 -13 25 -14 13 -37 16
-117 15 l-99 -2 -130 76 c-71 42 -178 104 -237 138 -141 82 -170 107 -219 191
-105 180 -142 275 -140 362 1 70 31 123 113 202 40 38 91 88 115 110 29 28 43
50 43 68 0 33 -13 33 -30 1z"/>
<path d="M747 4320 c-27 -5 -57 -16 -68 -26 -46 -42 1 -151 78 -180 85 -33
244 1 274 57 37 70 28 131 -23 148 -35 13 -189 13 -261 1z m237 -40 c59 -22
10 -107 -74 -130 -63 -17 -137 -4 -172 30 -28 28 -37 73 -18 85 35 22 219 32
264 15z"/>
<path d="M666 3949 c-39 -33 -76 -119 -76 -174 0 -56 44 -85 130 -85 70 0 98
14 117 57 30 74 2 182 -57 217 -42 24 -75 20 -114 -15z"/>
<path d="M1215 3855 c-124 -22 -199 -76 -193 -139 4 -37 48 -70 125 -92 87
-25 126 -13 200 61 83 83 83 115 3 164 -40 24 -40 24 -135 6z"/>
<path d="M3233 4848 c-11 -19 -16 -381 -5 -397 26 -37 32 5 32 205 0 191 -5
226 -27 192z"/>
</g>
</svg>
